Input #0, mov,mp4,m4a,3gp,3g2,mj2, from '/home/hbattu/projects/huberman-gpt/huberman-audio/mp3/tmp3gmsuzyy.mp4':
  Metadata:
    major_brand     : dash
    minor_version   : 0
    compatible_brands: iso6mp41
    creation_time   : 2022-11-22T19:44:10.000000Z
  Duration: 02:23:43.52, start: 0.000000, bitrate: 129 kb/s
    Stream #0:0(eng): Audio: aac (LC) (mp4a / 0x6134706D), 44100 Hz, stereo, fltp, 0 kb/s (default)
    Metadata:
      creation_time   : 2022-11-22T19:44:10.000000Z
      handler_name    : ISO Media file produced by Google Inc.
Stream mapping:
  Stream #0:0 -> #0:0 (aac (native) -> mp3 (libmp3lame))
Press [q] to stop, [?] for help
[graph_0_in_0_0 @ 0x56147e4c0400] tb:1/44100 samplefmt:fltp samplerate:44100 chlayout:0x3
Output #0, mp3, to '../huberman-audio/mp3/LTGGyQS1fZE.mp3':
  Metadata:
    major_brand     : dash
    minor_version   : 0
    compatible_brands: iso6mp41
    TSSE            : Lavf58.29.100
    Stream #0:0(eng): Audio: mp3 (libmp3lame), 44100 Hz, stereo, fltp, delay 1105 (default)
    Metadata:
      creation_time   : 2022-11-22T19:44:10.000000Z
      handler_name    : ISO Media file produced by Google Inc.
      encoder         : Lavc58.54.100 libmp3lame
No more output streams to write to, finishing.
size=  134744kB time=02:23:43.54 bitrate= 128.0kbits/s speed=90.6x    
[AVIOContext @ 0x56147e494900] Statistics: 0 seeks, 191 writeouts
video:0kB audio:134743kB subtitle:0kB other streams:0kB global headers:0kB muxing overhead: 0.000251%
Input file #0 (/home/hbattu/projects/huberman-gpt/huberman-audio/mp3/tmp3gmsuzyy.mp4):
  Input stream #0:0 (audio): 371384 packets read (137976314 bytes); 371384 frames decoded (380297216 samples); 
  Total: 371384 packets (137976314 bytes) demuxed
Output file #0 (../huberman-audio/mp3/LTGGyQS1fZE.mp3):
  Output stream #0:0 (audio): 330120 frames encoded (380297216 samples); 330121 packets muxed (137977103 bytes); 
  Total: 330121 packets (137977103 bytes) muxed
[AVIOContext @ 0x56147e4b3b40] Statistics: 2 seeks, 528 writeouts
[AVIOContext @ 0x56147e49d880] Statistics: 139562738 bytes read, 0 seeks
